<svg width="47" height="42" viewBox="0 0 47 42" fill="none" xmlns="http://www.w3.org/2000/svg">
    <path d="M46.227 31.744 29.726 4.108C28.57 1.96 26.427.678 23.985.678c-2.441 0-4.584 1.282-5.74 3.43L1.745 31.744c-2.306 4.34.838 9.577 5.756 9.577h32.97c4.916 0 8.065-5.233 5.758-9.577zm-5.756 6.87H7.5c-2.863 0-4.703-3.036-3.381-5.572L20.62 5.41c1.435-2.702 5.297-2.7 6.731 0 17.293 28.96 16.47 27.58 16.5 27.633 1.323 2.538-.52 5.572-3.38 5.572z" fill="#235B4E"/>
    <path d="M22.63 11.542h2.708v17.597h-2.707V11.542zM22.63 31.846h2.708v2.707h-2.707v-2.707z" fill="#235B4E"/>
</svg>
