<svg width="299" height="174" viewBox="0 0 299 174" fill="none" xmlns="http://www.w3.org/2000/svg">
    <path d="M2.428 168v-12.6h1.098l8.694 10.944h-.576V155.4h1.314V168H11.86l-8.676-10.944h.576V168H2.428zm18.225.09c-.912 0-1.734-.204-2.466-.612-.72-.42-1.29-.99-1.71-1.71-.42-.732-.63-1.566-.63-2.502 0-.948.21-1.782.63-2.502.42-.72.99-1.284 1.71-1.692.72-.408 1.542-.612 2.466-.612.936 0 1.764.204 2.484.612a4.374 4.374 0 0 1 1.71 1.692c.42.72.63 1.554.63 2.502 0 .936-.21 1.77-.63 2.502a4.5 4.5 0 0 1-1.71 1.71c-.732.408-1.56.612-2.484.612zm0-1.134c.684 0 1.29-.15 1.818-.45a3.31 3.31 0 0 0 1.242-1.296c.312-.564.468-1.212.468-1.944 0-.744-.156-1.392-.468-1.944a3.185 3.185 0 0 0-1.242-1.278c-.528-.312-1.128-.468-1.8-.468-.672 0-1.272.156-1.8.468-.528.3-.948.726-1.26 1.278-.312.552-.468 1.2-.468 1.944 0 .732.156 1.38.468 1.944a3.44 3.44 0 0 0 1.26 1.296c.528.3 1.122.45 1.782.45zm16.158 1.134c-.984 0-1.848-.204-2.592-.612a4.597 4.597 0 0 1-1.746-1.71c-.42-.732-.63-1.566-.63-2.502 0-.936.198-1.764.594-2.484.408-.72.96-1.284 1.656-1.692.708-.42 1.5-.63 2.376-.63.888 0 1.674.204 2.358.612.696.396 1.242.96 1.638 1.692.396.72.594 1.554.594 2.502 0 .06-.006.126-.018.198v.198h-8.226v-.954h7.542l-.504.378c0-.684-.15-1.29-.45-1.818a3.166 3.166 0 0 0-1.188-1.26c-.504-.3-1.086-.45-1.746-.45-.648 0-1.23.15-1.746.45-.516.3-.918.72-1.206 1.26-.288.54-.432 1.158-.432 1.854v.198c0 .72.156 1.356.468 1.908.324.54.768.966 1.332 1.278.576.3 1.23.45 1.962.45.576 0 1.11-.102 1.602-.306a3.332 3.332 0 0 0 1.296-.936l.72.828c-.42.504-.948.888-1.584 1.152a5.26 5.26 0 0 1-2.07.396zm5.145-.09 3.996-5.184-.018.63-3.798-4.896h1.44l3.114 4.05-.54-.018 3.114-4.032h1.404l-3.834 4.95.018-.684L50.884 168h-1.458l-3.294-4.32.504.072-3.24 4.248h-1.44zm11.055 0v-9.45h1.278V168h-1.278zm.648-11.538a.905.905 0 0 1-.666-.27.884.884 0 0 1-.27-.648c0-.252.09-.462.27-.63.18-.18.402-.27.666-.27a.94.94 0 0 1 .666.252c.18.168.27.378.27.63 0 .264-.09.486-.27.666-.168.18-.39.27-.666.27zm6.724 11.628c-.78 0-1.518-.108-2.214-.324-.695-.228-1.241-.51-1.637-.846l.576-1.008c.384.288.876.54 1.476.756.6.204 1.23.306 1.89.306.9 0 1.548-.138 1.944-.414.395-.288.593-.666.593-1.134 0-.348-.114-.618-.342-.81-.215-.204-.503-.354-.863-.45a9.51 9.51 0 0 0-1.206-.27 25.981 25.981 0 0 1-1.333-.252 5.138 5.138 0 0 1-1.188-.414 2.499 2.499 0 0 1-.882-.774c-.216-.324-.324-.756-.324-1.296 0-.516.145-.978.433-1.386.288-.408.708-.726 1.26-.954.563-.24 1.247-.36 2.051-.36.613 0 1.225.084 1.837.252.611.156 1.115.366 1.511.63l-.558 1.026a4.152 4.152 0 0 0-1.35-.612 5.41 5.41 0 0 0-1.44-.198c-.851 0-1.481.15-1.89.45-.395.288-.593.66-.593 1.116 0 .36.108.642.324.846.227.204.522.366.882.486.371.108.773.198 1.205.27.444.072.883.162 1.314.27.444.096.846.234 1.206.414.373.168.666.414.883.738.227.312.342.726.342 1.242 0 .552-.157 1.032-.469 1.44-.3.396-.743.708-1.331.936-.577.216-1.279.324-2.107.324zm9.24 0c-.889 0-1.573-.24-2.053-.72s-.72-1.158-.72-2.034v-8.874h1.279v8.802c0 .552.137.978.413 1.278.288.3.697.45 1.224.45.564 0 1.032-.162 1.404-.486l.45.918a2.354 2.354 0 0 1-.918.504 3.623 3.623 0 0 1-1.08.162zm-4.465-8.478v-1.062h5.85v1.062h-5.85zm12.47 8.478c-.985 0-1.849-.204-2.593-.612a4.597 4.597 0 0 1-1.746-1.71c-.42-.732-.63-1.566-.63-2.502 0-.936.198-1.764.594-2.484.408-.72.96-1.284 1.656-1.692.708-.42 1.5-.63 2.376-.63.888 0 1.674.204 2.358.612.696.396 1.242.96 1.638 1.692.396.72.594 1.554.594 2.502 0 .06-.006.126-.018.198v.198h-8.226v-.954h7.542l-.504.378c0-.684-.15-1.29-.45-1.818a3.166 3.166 0 0 0-1.188-1.26c-.504-.3-1.086-.45-1.746-.45-.648 0-1.23.15-1.746.45-.516.3-.918.72-1.206 1.26-.288.54-.432 1.158-.432 1.854v.198c0 .72.156 1.356.468 1.908.324.54.768.966 1.332 1.278.576.3 1.23.45 1.962.45.576 0 1.11-.102 1.602-.306a3.332 3.332 0 0 0 1.296-.936l.72.828c-.42.504-.948.888-1.584 1.152a5.26 5.26 0 0 1-2.07.396zm11.672-9.63c.768 0 1.44.15 2.016.45a3.057 3.057 0 0 1 1.368 1.332c.336.6.504 1.356.504 2.268V168H91.91v-5.364c0-.996-.252-1.746-.756-2.25-.492-.516-1.188-.774-2.088-.774-.672 0-1.26.138-1.764.414a2.779 2.779 0 0 0-1.152 1.17c-.264.504-.396 1.116-.396 1.836V168h-1.278v-9.45H85.7v2.592l-.198-.486a3.39 3.39 0 0 1 1.44-1.602c.66-.396 1.446-.594 2.358-.594zm16.875 0c.768 0 1.44.15 2.016.45a3.057 3.057 0 0 1 1.368 1.332c.336.6.504 1.356.504 2.268V168h-1.278v-5.364c0-.996-.252-1.746-.756-2.25-.492-.516-1.188-.774-2.088-.774-.672 0-1.26.138-1.764.414a2.779 2.779 0 0 0-1.152 1.17c-.264.504-.396 1.116-.396 1.836V168h-1.278v-13.356h1.278v6.498l-.252-.486a3.39 3.39 0 0 1 1.44-1.602c.66-.396 1.446-.594 2.358-.594zm11.192 9.63c-.912 0-1.734-.204-2.466-.612-.72-.42-1.29-.99-1.71-1.71-.42-.732-.63-1.566-.63-2.502 0-.948.21-1.782.63-2.502.42-.72.99-1.284 1.71-1.692.72-.408 1.542-.612 2.466-.612.936 0 1.764.204 2.484.612a4.374 4.374 0 0 1 1.71 1.692c.42.72.63 1.554.63 2.502 0 .936-.21 1.77-.63 2.502a4.5 4.5 0 0 1-1.71 1.71c-.732.408-1.56.612-2.484.612zm0-1.134c.684 0 1.29-.15 1.818-.45a3.31 3.31 0 0 0 1.242-1.296c.312-.564.468-1.212.468-1.944 0-.744-.156-1.392-.468-1.944a3.185 3.185 0 0 0-1.242-1.278c-.528-.312-1.128-.468-1.8-.468-.672 0-1.272.156-1.8.468-.528.3-.948.726-1.26 1.278-.312.552-.468 1.2-.468 1.944 0 .732.156 1.38.468 1.944a3.44 3.44 0 0 0 1.26 1.296c.528.3 1.122.45 1.782.45zm7.434 1.044v-9.45h1.224v2.574l-.126-.45c.264-.72.708-1.266 1.332-1.638.624-.384 1.398-.576 2.322-.576v1.242h-.144a.592.592 0 0 0-.144-.018c-.996 0-1.776.306-2.34.918-.564.6-.846 1.458-.846 2.574V168h-1.278zm12.302 0v-2.088l-.054-.342v-3.492c0-.804-.228-1.422-.684-1.854-.444-.432-1.11-.648-1.998-.648-.612 0-1.194.102-1.746.306a4.448 4.448 0 0 0-1.404.81l-.576-.954a4.99 4.99 0 0 1 1.728-.936 6.566 6.566 0 0 1 2.124-.342c1.224 0 2.166.306 2.826.918.672.6 1.008 1.518 1.008 2.754V168h-1.224zm-3.258.09c-.708 0-1.326-.114-1.854-.342-.516-.24-.912-.564-1.188-.972-.276-.42-.414-.9-.414-1.44 0-.492.114-.936.342-1.332.24-.408.624-.732 1.152-.972.54-.252 1.26-.378 2.16-.378h3.258v.954h-3.222c-.912 0-1.548.162-1.908.486a1.581 1.581 0 0 0-.522 1.206c0 .54.21.972.63 1.296.42.324 1.008.486 1.764.486.72 0 1.338-.162 1.854-.486.528-.336.912-.816 1.152-1.44l.288.882c-.24.624-.66 1.122-1.26 1.494-.588.372-1.332.558-2.232.558zm7.954-.09v-9.45h1.224v2.574l-.126-.45c.264-.72.708-1.266 1.332-1.638.624-.384 1.398-.576 2.322-.576v1.242h-.144a.592.592 0 0 0-.144-.018c-.996 0-1.776.306-2.34.918-.564.6-.846 1.458-.846 2.574V168h-1.278zm7.084 0v-9.45h1.278V168h-1.278zm.648-11.538a.905.905 0 0 1-.666-.27.884.884 0 0 1-.27-.648c0-.252.09-.462.27-.63.18-.18.402-.27.666-.27a.94.94 0 0 1 .666.252c.18.168.27.378.27.63 0 .264-.09.486-.27.666-.168.18-.39.27-.666.27zm8.038 11.628c-.912 0-1.734-.204-2.466-.612-.72-.42-1.29-.99-1.71-1.71-.42-.732-.63-1.566-.63-2.502 0-.948.21-1.782.63-2.502.42-.72.99-1.284 1.71-1.692.72-.408 1.542-.612 2.466-.612.936 0 1.764.204 2.484.612a4.374 4.374 0 0 1 1.71 1.692c.42.72.63 1.554.63 2.502 0 .936-.21 1.77-.63 2.502a4.5 4.5 0 0 1-1.71 1.71c-.732.408-1.56.612-2.484.612zm0-1.134c.684 0 1.29-.15 1.818-.45a3.31 3.31 0 0 0 1.242-1.296c.312-.564.468-1.212.468-1.944 0-.744-.156-1.392-.468-1.944a3.185 3.185 0 0 0-1.242-1.278c-.528-.312-1.128-.468-1.8-.468-.672 0-1.272.156-1.8.468-.528.3-.948.726-1.26 1.278-.312.552-.468 1.2-.468 1.944 0 .732.156 1.38.468 1.944a3.44 3.44 0 0 0 1.26 1.296c.528.3 1.122.45 1.782.45zm9.971 1.134c-.78 0-1.518-.108-2.214-.324-.696-.228-1.242-.51-1.638-.846l.576-1.008c.384.288.876.54 1.476.756.6.204 1.23.306 1.89.306.9 0 1.548-.138 1.944-.414.396-.288.594-.666.594-1.134 0-.348-.114-.618-.342-.81-.216-.204-.504-.354-.864-.45a9.51 9.51 0 0 0-1.206-.27 25.981 25.981 0 0 1-1.332-.252 5.138 5.138 0 0 1-1.188-.414 2.499 2.499 0 0 1-.882-.774c-.216-.324-.324-.756-.324-1.296 0-.516.144-.978.432-1.386.288-.408.708-.726 1.26-.954.564-.24 1.248-.36 2.052-.36.612 0 1.224.084 1.836.252.612.156 1.116.366 1.512.63l-.558 1.026a4.152 4.152 0 0 0-1.35-.612 5.41 5.41 0 0 0-1.44-.198c-.852 0-1.482.15-1.89.45-.396.288-.594.66-.594 1.116 0 .36.108.642.324.846.228.204.522.366.882.486.372.108.774.198 1.206.27.444.072.882.162 1.314.27.444.096.846.234 1.206.414.372.168.666.414.882.738.228.312.342.726.342 1.242 0 .552-.156 1.032-.468 1.44-.3.396-.744.708-1.332.936-.576.216-1.278.324-2.106.324zm14.886 0c-.936 0-1.776-.204-2.52-.612a4.634 4.634 0 0 1-1.728-1.71c-.42-.732-.63-1.566-.63-2.502 0-.948.21-1.782.63-2.502.42-.72.996-1.284 1.728-1.692.744-.408 1.584-.612 2.52-.612.804 0 1.53.156 2.178.468a3.53 3.53 0 0 1 1.53 1.404l-.954.648a2.999 2.999 0 0 0-1.206-1.062 3.603 3.603 0 0 0-1.566-.342c-.672 0-1.278.156-1.818.468-.54.3-.966.726-1.278 1.278-.312.552-.468 1.2-.468 1.944s.156 1.392.468 1.944a3.4 3.4 0 0 0 1.278 1.296c.54.3 1.146.45 1.818.45.564 0 1.086-.114 1.566-.342.48-.228.882-.576 1.206-1.044l.954.648a3.679 3.679 0 0 1-1.53 1.404c-.648.312-1.374.468-2.178.468zm9.912 0c-.912 0-1.734-.204-2.466-.612-.72-.42-1.29-.99-1.71-1.71-.42-.732-.63-1.566-.63-2.502 0-.948.21-1.782.63-2.502.42-.72.99-1.284 1.71-1.692.72-.408 1.542-.612 2.466-.612.936 0 1.764.204 2.484.612a4.374 4.374 0 0 1 1.71 1.692c.42.72.63 1.554.63 2.502 0 .936-.21 1.77-.63 2.502a4.5 4.5 0 0 1-1.71 1.71c-.732.408-1.56.612-2.484.612zm0-1.134c.684 0 1.29-.15 1.818-.45a3.31 3.31 0 0 0 1.242-1.296c.312-.564.468-1.212.468-1.944 0-.744-.156-1.392-.468-1.944a3.185 3.185 0 0 0-1.242-1.278c-.528-.312-1.128-.468-1.8-.468-.672 0-1.272.156-1.8.468-.528.3-.948.726-1.26 1.278-.312.552-.468 1.2-.468 1.944 0 .732.156 1.38.468 1.944a3.44 3.44 0 0 0 1.26 1.296c.528.3 1.122.45 1.782.45zm12.257-8.496c.768 0 1.44.15 2.016.45a3.057 3.057 0 0 1 1.368 1.332c.336.6.504 1.356.504 2.268V168h-1.278v-5.364c0-.996-.252-1.746-.756-2.25-.492-.516-1.188-.774-2.088-.774-.672 0-1.26.138-1.764.414a2.779 2.779 0 0 0-1.152 1.17c-.264.504-.396 1.116-.396 1.836V168h-1.278v-9.45h1.224v2.592l-.198-.486a3.39 3.39 0 0 1 1.44-1.602c.66-.396 1.446-.594 2.358-.594zm7.556 9.54v-10.638c0-.84.246-1.518.738-2.034.492-.516 1.2-.774 2.124-.774.36 0 .708.048 1.044.144.336.096.618.246.846.45l-.432.954a1.69 1.69 0 0 0-.63-.342 2.327 2.327 0 0 0-.774-.126c-.54 0-.954.15-1.242.45-.288.3-.432.744-.432 1.332v1.44l.036.594V168h-1.278zm-1.692-8.388v-1.062h5.85v1.062h-5.85zm7.578 8.388v-9.45h1.278V168h-1.278zm.648-11.538a.905.905 0 0 1-.666-.27.884.884 0 0 1-.27-.648c0-.252.09-.462.27-.63.18-.18.402-.27.666-.27a.94.94 0 0 1 .666.252c.18.168.27.378.27.63 0 .264-.09.486-.27.666-.168.18-.39.27-.666.27zm8.251 15.12a8.143 8.143 0 0 1-2.484-.378c-.792-.252-1.434-.612-1.926-1.08l.648-.972c.444.396.99.708 1.638.936.66.24 1.356.36 2.088.36 1.2 0 2.082-.282 2.646-.846.564-.552.846-1.416.846-2.592v-2.358l.18-1.62-.126-1.62v-2.862h1.224v8.298c0 1.632-.402 2.826-1.206 3.582-.792.768-1.968 1.152-3.528 1.152zm-.234-3.942c-.9 0-1.71-.192-2.43-.576a4.486 4.486 0 0 1-1.71-1.638c-.408-.696-.612-1.494-.612-2.394 0-.9.204-1.692.612-2.376.42-.696.99-1.236 1.71-1.62.72-.384 1.53-.576 2.43-.576.84 0 1.596.174 2.268.522a3.898 3.898 0 0 1 1.602 1.548c.396.684.594 1.518.594 2.502 0 .984-.198 1.818-.594 2.502a4.019 4.019 0 0 1-1.602 1.566c-.672.36-1.428.54-2.268.54zm.126-1.134c.696 0 1.314-.144 1.854-.432.54-.3.966-.708 1.278-1.224.312-.528.468-1.134.468-1.818 0-.684-.156-1.284-.468-1.8a3.254 3.254 0 0 0-1.278-1.206c-.54-.3-1.158-.45-1.854-.45-.684 0-1.302.15-1.854.45-.54.288-.966.69-1.278 1.206-.3.516-.45 1.116-.45 1.8 0 .684.15 1.29.45 1.818.312.516.738.924 1.278 1.224.552.288 1.17.432 1.854.432zm12.304 1.584c-.804 0-1.506-.15-2.106-.45-.6-.3-1.068-.75-1.404-1.35-.324-.6-.486-1.35-.486-2.25v-5.49h1.278v5.346c0 1.008.246 1.77.738 2.286.504.504 1.206.756 2.106.756.66 0 1.23-.132 1.71-.396a2.674 2.674 0 0 0 1.116-1.188c.264-.516.396-1.134.396-1.854v-4.95h1.278V168h-1.224v-2.592l.198.468a3.53 3.53 0 0 1-1.404 1.638c-.624.384-1.356.576-2.196.576zm8.188-.09v-9.45h1.224v2.574l-.126-.45c.264-.72.708-1.266 1.332-1.638.624-.384 1.398-.576 2.322-.576v1.242h-.144a.592.592 0 0 0-.144-.018c-.996 0-1.776.306-2.34.918-.564.6-.846 1.458-.846 2.574V168h-1.278zm12.303 0v-2.088l-.054-.342v-3.492c0-.804-.228-1.422-.684-1.854-.444-.432-1.11-.648-1.998-.648-.612 0-1.194.102-1.746.306a4.448 4.448 0 0 0-1.404.81l-.576-.954a4.99 4.99 0 0 1 1.728-.936 6.566 6.566 0 0 1 2.124-.342c1.224 0 2.166.306 2.826.918.672.6 1.008 1.518 1.008 2.754V168h-1.224zm-3.258.09c-.708 0-1.326-.114-1.854-.342-.516-.24-.912-.564-1.188-.972-.276-.42-.414-.9-.414-1.44 0-.492.114-.936.342-1.332.24-.408.624-.732 1.152-.972.54-.252 1.26-.378 2.16-.378h3.258v.954h-3.222c-.912 0-1.548.162-1.908.486a1.581 1.581 0 0 0-.522 1.206c0 .54.21.972.63 1.296.42.324 1.008.486 1.764.486.72 0 1.338-.162 1.854-.486.528-.336.912-.816 1.152-1.44l.288.882c-.24.624-.66 1.122-1.26 1.494-.588.372-1.332.558-2.232.558zm11.715 0c-.9 0-1.71-.204-2.43-.612a4.445 4.445 0 0 1-1.674-1.692c-.408-.732-.612-1.572-.612-2.52 0-.96.204-1.8.612-2.52a4.317 4.317 0 0 1 1.674-1.674c.72-.408 1.53-.612 2.43-.612.828 0 1.566.186 2.214.558.66.372 1.182.918 1.566 1.638.396.708.594 1.578.594 2.61 0 1.02-.192 1.89-.576 2.61-.384.72-.906 1.272-1.566 1.656-.648.372-1.392.558-2.232.558zm.09-1.134c.672 0 1.272-.15 1.8-.45.54-.312.96-.744 1.26-1.296.312-.564.468-1.212.468-1.944 0-.744-.156-1.392-.468-1.944-.3-.552-.72-.978-1.26-1.278-.528-.312-1.128-.468-1.8-.468-.66 0-1.254.156-1.782.468-.528.3-.948.726-1.26 1.278-.312.552-.468 1.2-.468 1.944 0 .732.156 1.38.468 1.944a3.44 3.44 0 0 0 1.26 1.296c.528.3 1.122.45 1.782.45zm3.564 1.044v-2.844l.126-1.908-.18-1.908v-6.696h1.278V168h-1.224zm8.635.09c-.912 0-1.734-.204-2.466-.612-.72-.42-1.29-.99-1.71-1.71-.42-.732-.63-1.566-.63-2.502 0-.948.21-1.782.63-2.502.42-.72.99-1.284 1.71-1.692.72-.408 1.542-.612 2.466-.612.936 0 1.764.204 2.484.612a4.374 4.374 0 0 1 1.71 1.692c.42.72.63 1.554.63 2.502 0 .936-.21 1.77-.63 2.502a4.5 4.5 0 0 1-1.71 1.71c-.732.408-1.56.612-2.484.612zm0-1.134c.684 0 1.29-.15 1.818-.45a3.31 3.31 0 0 0 1.242-1.296c.312-.564.468-1.212.468-1.944 0-.744-.156-1.392-.468-1.944a3.185 3.185 0 0 0-1.242-1.278c-.528-.312-1.128-.468-1.8-.468-.672 0-1.272.156-1.8.468-.528.3-.948.726-1.26 1.278-.312.552-.468 1.2-.468 1.944 0 .732.156 1.38.468 1.944a3.44 3.44 0 0 0 1.26 1.296c.528.3 1.122.45 1.782.45zm9.972 1.134c-.78 0-1.518-.108-2.214-.324-.696-.228-1.242-.51-1.638-.846l.576-1.008c.384.288.876.54 1.476.756.6.204 1.23.306 1.89.306.9 0 1.548-.138 1.944-.414.396-.288.594-.666.594-1.134 0-.348-.114-.618-.342-.81-.216-.204-.504-.354-.864-.45a9.51 9.51 0 0 0-1.206-.27 25.981 25.981 0 0 1-1.332-.252 5.138 5.138 0 0 1-1.188-.414 2.499 2.499 0 0 1-.882-.774c-.216-.324-.324-.756-.324-1.296 0-.516.144-.978.432-1.386.288-.408.708-.726 1.26-.954.564-.24 1.248-.36 2.052-.36.612 0 1.224.084 1.836.252.612.156 1.116.366 1.512.63l-.558 1.026a4.152 4.152 0 0 0-1.35-.612 5.41 5.41 0 0 0-1.44-.198c-.852 0-1.482.15-1.89.45-.396.288-.594.66-.594 1.116 0 .36.108.642.324.846.228.204.522.366.882.486.372.108.774.198 1.206.27.444.072.882.162 1.314.27.444.096.846.234 1.206.414.372.168.666.414.882.738.228.312.342.726.342 1.242 0 .552-.156 1.032-.468 1.44-.3.396-.744.708-1.332.936-.576.216-1.278.324-2.106.324zm6.377 0a.934.934 0 0 1-.684-.288.989.989 0 0 1-.27-.702c0-.288.09-.522.27-.702.192-.18.42-.27.684-.27.264 0 .486.09.666.27.192.18.288.414.288.702 0 .276-.096.51-.288.702a.877.877 0 0 1-.666.288z" fill="#545454"/>
    <g clip-path="url(#cmvy2xqm7a)">
        <path fill="#fff" d="M93 0h112v131H93z"/>
        <path d="M152.204.646h-46.818a11.734 11.734 0 0 0-8.276 3.41 11.619 11.619 0 0 0-3.428 8.237v93.178c0 3.089 1.233 6.051 3.428 8.235a11.731 11.731 0 0 0 8.276 3.412h70.227c3.105 0 6.082-1.227 8.277-3.412a11.616 11.616 0 0 0 3.428-8.235V35.587L152.204.646z" stroke="#98989A" stroke-width="1.5" stroke-linecap="round" stroke-linejoin="round"/>
        <path d="M152.205.646v34.941h35.113M163.909 64.705h-46.818M163.909 88.001h-46.818M128.795 41.41h-11.704" stroke="#98989A" stroke-width="1.5" stroke-linecap="round" stroke-linejoin="round"/>
        <path fill="#fff" d="M142 69h55v55h-55z"/>
        <path d="M169.5 122.75c14.497 0 26.25-11.753 26.25-26.25 0-14.498-11.753-26.25-26.25-26.25s-26.25 11.752-26.25 26.25c0 14.497 11.753 26.25 26.25 26.25zM177.375 88.625l-15.75 15.75M161.625 88.625l15.75 15.75" stroke="#98989A" stroke-width="1.5" stroke-linecap="round" stroke-linejoin="round"/>
    </g>
    <defs>
        <clipPath id="cmvy2xqm7a">
            <path fill="#fff" transform="translate(93)" d="M0 0h112v131H0z"/>
        </clipPath>
    </defs>
</svg>
