<svg width="24" height="25" viewBox="0 0 24 25" fill="none" xmlns="http://www.w3.org/2000/svg">
    <path d="M22 7.996a.999.999 0 0 0-.29-.71l-4.24-4.24a.999.999 0 0 0-.71-.29 1 1 0 0 0-.71.29l-2.83 2.83-10.93 10.93a.999.999 0 0 0-.29.71v4.24a1 1 0 0 0 1 1h4.24a1 1 0 0 0 .76-.29l10.87-10.93 2.84-2.78c.091-.097.166-.209.22-.33.01-.08.01-.16 0-.24a.697.697 0 0 0 0-.14l.07-.05zM6.83 20.756H4v-2.83l9.93-9.93 2.83 2.83-9.93 9.93zm11.34-11.34-2.83-2.83 1.42-1.41 2.82 2.82-1.41 1.42z" fill="#4D92DF"/>
</svg>
